<?xml version="1.0" standalone="no"?>
<!DOCTYPE svg PUBLIC "-//W3C//DTD SVG 20010904//EN"
 "http://www.w3.org/TR/2001/REC-SVG-20010904/DTD/svg10.dtd">
<svg version="1.0" xmlns="http://www.w3.org/2000/svg"
 width="3300.000000pt" height="2300.000000pt" viewBox="0 0 3300.000000 2300.000000"
 preserveAspectRatio="xMidYMid meet">

<g transform="translate(0.000000,2300.000000) scale(0.100000,-0.100000)"
fill="#000000" stroke="none">
<path d="M2980 21857 c0 -7 10 -23 23 -34 31 -28 1349 -1353 3142 -3158 835
-841 1882 -1894 2325 -2340 1108 -1114 3607 -3629 4800 -4830 421 -423 1646
-1651 2723 -2727 l1958 -1958 655 0 c410 0 654 4 652 10 -3 10 -352 363 -1508
1525 -448 451 -1193 1200 -1655 1665 -462 465 -1193 1201 -1625 1635 -1329
1337 -2369 2384 -4025 4050 -2821 2839 -3297 3317 -3450 3464 -82 80 -725 722
-1428 1428 l-1279 1283 -654 0 c-535 0 -654 -2 -654 -13z"/>
<path d="M4522 16060 c2 -5 370 -377 818 -827 776 -780 1366 -1373 3220 -3238
1062 -1069 2198 -2211 3318 -3337 490 -493 892 -902 892 -907 0 -7 -36 -11
-97 -11 -54 0 -836 0 -1738 1 -902 1 -3096 2 -4875 3 l-3235 1 -3 -457 c-1
-252 1 -459 5 -459 27 -5 11871 -4 12010 1 l172 5 -637 640 c-350 352 -998
1005 -1441 1450 -443 446 -1175 1182 -1626 1636 -451 453 -1508 1517 -2350
2364 -841 847 -1890 1901 -2329 2342 l-800 803 -654 0 c-412 0 -652 -4 -650
-10z"/>
<path d="M13191 15703 c201 -203 734 -739 1185 -1193 451 -454 1216 -1223
1700 -1709 483 -486 893 -898 909 -916 17 -17 435 -438 930 -936 1234 -1241
2145 -2157 3960 -3984 853 -858 2536 -2547 3742 -3752 l2191 -2193 657 0 c413
0 655 4 653 10 -3 9 -253 261 -2038 2055 -421 424 -1492 1501 -2380 2395 -888
894 -1975 1987 -2415 2430 -440 443 -1156 1163 -1590 1600 -435 437 -1172
1179 -1640 1650 -467 470 -1762 1767 -2878 2882 l-2027 2028 -662 0 -663 0
366 -367z"/>
<path d="M17081 16056 c2 -3 330 -332 729 -733 398 -400 1082 -1088 1519
-1528 438 -440 1147 -1153 1576 -1585 430 -432 1469 -1478 2311 -2324 841
-847 1871 -1883 2289 -2303 l760 -764 657 3 657 3 -637 640 c-1741 1750 -2371
2384 -3827 3850 -869 875 -1934 1946 -2366 2380 -954 959 -1423 1434 -1427
1446 -2 5 1997 6 4972 2 l4976 -6 0 461 0 462 -6097 0 c-3353 0 -6094 -2
-6092 -4z"/>
</g>
</svg>
