<?xml version="1.0" standalone="no"?>
<!DOCTYPE svg PUBLIC "-//W3C//DTD SVG 20010904//EN"
 "http://www.w3.org/TR/2001/REC-SVG-20010904/DTD/svg10.dtd">
<svg version="1.0" xmlns="http://www.w3.org/2000/svg"
 width="4096.000000pt" height="4096.000000pt" viewBox="0 0 4096.000000 4096.000000"
 preserveAspectRatio="xMidYMid meet">

<g transform="translate(0.000000,4096.000000) scale(0.100000,-0.100000)"
fill="#000000" stroke="none">
<path d="M0 20480 l0 -20480 20480 0 20480 0 0 20480 0 20480 -20480 0 -20480
0 0 -20480z m7841 11042 c376 -378 1501 -1508 2499 -2512 997 -1004 2235
-2248 2750 -2765 514 -517 1347 -1354 1850 -1860 503 -506 1327 -1334 1830
-1840 504 -506 1287 -1293 1740 -1750 454 -456 1239 -1246 1745 -1755 506
-509 1301 -1307 1766 -1775 465 -467 1057 -1064 1317 -1325 l471 -475 -647 -3
-647 -2 -790 792 c-434 436 -1208 1214 -1720 1728 -511 514 -1445 1453 -2075
2085 -630 633 -1559 1566 -2065 2075 -3744 3765 -5910 5942 -7390 7430 -501
503 -1293 1300 -1760 1770 l-850 855 110 6 c61 3 351 6 646 7 l535 2 685 -688z
m1944 -6494 c142 -145 663 -670 1159 -1168 496 -498 1668 -1677 2606 -2620
2482 -2497 3422 -3441 4655 -4678 605 -607 1102 -1105 1104 -1108 2 -2 -3027
-4 -6732 -4 l-6737 0 2 453 3 452 5622 5 5622 5 -412 415 c-226 228 -808 813
-1292 1300 -2018 2029 -4879 4905 -6780 6818 l-390 392 656 0 656 0 258 -262z
m25353 -190 l-3 -453 -5622 -5 -5622 -5 412 -415 c431 -435 1534 -1543 3107
-3125 999 -1003 4133 -4156 4892 -4920 l457 -460 -652 -3 -652 -3 -259 263
c-142 145 -664 670 -1160 1168 -496 498 -1668 1677 -2606 2620 -2482 2497
-3422 3441 -4655 4678 -605 607 -1102 1105 -1104 1108 -2 2 3027 4 6732 4
l6737 0 -2 -452z m-15883 -350 c434 -436 1208 -1214 1720 -1728 511 -514 1445
-1453 2075 -2085 630 -633 1559 -1566 2065 -2075 3744 -3765 5910 -5942 7390
-7430 501 -503 1293 -1300 1760 -1770 l850 -855 -120 -6 c-66 -4 -357 -7 -646
-8 l-525 -1 -689 693 c-379 380 -1105 1111 -1614 1622 -1785 1794 -2764 2778
-3676 3695 -506 509 -1334 1341 -1840 1850 -1846 1856 -2856 2872 -3630 3650
-434 437 -1204 1211 -1710 1720 -506 509 -1318 1326 -1805 1815 -486 490
-1067 1073 -1290 1298 l-405 407 650 0 650 0 790 -792z"/>
</g>
</svg>
